Coordinates
version=1
nRows=31
nColumns=33
inDegrees=yes

Units are S.I. units (second, meters, Newtons, ...)
Angles are in degrees.

endheader
time	ground_thorax_rot_x	ground_thorax_rot_y	ground_thorax_rot_z	ground_thorax_tx	ground_thorax_ty	ground_thorax_tz	clav_prot_r	clav_elev_r	scapula_abduction_r	scapula_elevation_r	scapula_upward_rot_r	scapula_winging_r	shoulder_elv_r	plane_of_elev_r	axial_rot_r	elbow_flexion_r	pro_sup_r	wrist_flex_r	wrist_dev_r	clav_prot_l	clav_elev_l	scapula_abduction_l	scapula_elevation_l	scapula_upward_rot_l	scapula_winging_l	shoulder_elv_l	plane_of_elev_l	axial_rot_l	elbow_flexion_l	pro_sup_l	wrist_flex_l	wrist_dev_l	
8.3200	38.776867	2.459464	9.724105	-184.195687	898.265292	-6.042932	13.236417	38.397864	39.169897	45.000000	-36.390896	631.694247	789.425840	32.650507	66.125896	1097.923255	68.298974	19.183266	4.350491	12.201503	-45.000000	-40.172569	45.000000	-39.106930	-2420.205574	-4601.388231	18.993883	-53.627075	1092.637775	44.138024	6.738151	-23.475035	
8.3300	38.819581	2.311229	9.459490	-181.259007	899.451236	-6.035733	13.251585	38.591124	39.448059	45.000000	-35.533454	631.561023	789.457703	32.667104	65.819326	1098.044200	69.622748	19.157014	4.240063	12.074095	-45.000000	-40.502700	45.000000	-37.896381	-2420.270867	-4601.305788	19.089427	-53.043022	1092.544897	43.256036	6.864196	-23.505358	
8.3400	38.848709	2.168062	9.202124	-178.225884	900.399844	-6.006824	13.266504	38.788073	39.722703	45.000000	-34.664766	631.431985	789.471967	32.685063	65.496702	1098.159851	70.900574	19.125639	4.132447	11.931369	-45.000000	-40.830326	45.000000	-36.639312	-2420.349345	-4601.249436	19.172071	-52.497410	1092.428278	42.177607	7.029826	-23.532608	
8.3500	38.864110	2.030547	8.958598	-175.101683	901.093841	-5.953604	13.259358	38.976659	39.992521	45.000000	-33.802343	631.315487	789.478518	32.705374	65.148257	1098.268972	72.125605	19.095786	4.033192	11.786783	-45.000000	-41.149787	45.000000	-35.389098	-2420.442039	-4601.224637	19.256375	-51.963444	1092.285776	40.900301	7.231441	-23.548283	
8.3600	38.860742	1.896929	8.735818	-171.891675	901.518962	-5.874149	13.271671	39.167023	40.266109	44.999999	-32.950964	631.221164	789.473423	32.715674	64.782414	1098.373591	73.313961	19.061842	3.935386	11.623642	-45.000000	-41.451861	45.000000	-34.126892	-2420.549433	-4601.229708	19.329597	-51.445927	1092.113243	39.405627	7.487474	-23.559342	
8.3700	38.839835	1.767623	8.533572	-168.601778	901.663891	-5.767082	13.280485	39.353267	40.540758	44.999999	-32.119047	631.147432	789.456624	32.720770	64.389331	1098.471720	74.465029	19.027617	3.844203	11.454933	-45.000000	-41.741830	45.000000	-32.877070	-2420.668934	-4601.271241	19.398673	-50.940217	1091.911798	37.679398	7.795559	-23.556846	
8.3800	38.800067	1.642512	8.351422	-165.237417	901.520496	-5.631235	13.311247	39.543352	40.818664	44.999998	-31.301398	631.093844	789.422067	32.717800	63.986937	1098.563341	75.590154	18.987422	3.754806	11.270583	-45.000000	-42.017511	45.000000	-31.629754	-2420.804101	-4601.350207	19.453797	-50.455249	1091.677637	35.706623	8.167262	-23.542954	
8.3900	38.743146	1.527497	8.193512	-161.804258	901.083847	-5.465284	13.368941	39.735320	41.098418	44.999997	-30.510820	631.055826	789.370937	32.708781	63.574104	1098.649393	76.697416	18.937921	3.665181	11.071734	-45.000000	-42.284068	45.000000	-30.400687	-2420.954063	-4601.463094	19.493003	-50.002256	1091.418590	33.489742	8.599647	-23.514479	
8.4000	38.671273	1.418589	8.054212	-158.307094	900.352298	-5.267392	13.404097	39.921031	41.372029	44.999995	-29.729672	631.033068	789.299144	32.696960	63.172638	1098.732885	77.783615	18.885879	3.580451	10.877351	-45.000000	-42.535187	45.000000	-29.213557	-2421.118476	-4601.615263	19.527184	-49.583455	1091.133938	31.069034	9.071581	-23.459320	
8.4100	38.586752	1.320168	7.929859	-154.750952	899.327297	-5.035154	13.411815	40.101500	41.633188	44.999991	-28.959614	631.015600	789.202737	32.689166	62.784506	1098.814177	78.832928	18.831403	3.502640	10.692844	-45.000000	-42.782092	45.000000	-28.089560	-2421.296920	-4601.802788	19.559766	-49.193031	1090.837766	28.504707	9.568499	-23.371792	
8.4200	38.493241	1.226487	7.814660	-151.139930	898.013254	-4.765795	13.380535	40.272948	41.882387	44.999983	-28.194212	631.011041	789.084823	32.680513	62.414985	1098.891931	79.831172	18.778255	3.435652	10.524210	-45.000000	-43.019507	45.000000	-27.038546	-2421.491024	-4602.026962	19.596364	-48.828181	1090.531550	25.865982	10.074170	-23.244447	
8.4300	38.392745	1.147157	7.718417	-147.478453	896.417276	-4.456792	13.329078	40.433508	42.119020	44.999970	-27.470068	631.018060	788.951006	32.679603	62.039508	1098.964254	80.766613	18.724908	3.378682	10.370449	-45.000000	-43.248423	45.000000	-26.085492	-2421.701671	-4602.278851	19.635622	-48.487466	1090.230295	23.235689	10.567828	-23.082927	
8.4400	38.287469	1.080194	7.638289	-143.770419	894.548112	-4.106503	13.280455	40.589295	42.347452	44.999946	-26.792577	631.041309	788.799285	32.681938	61.650659	1099.028165	81.634202	18.669591	3.330717	10.224504	-45.000000	-43.467534	45.000000	-25.222157	-2421.930682	-4602.555656	19.672818	-48.157565	1089.941516	20.692341	11.041659	-22.894228	
8.4500	38.179296	1.019834	7.571986	-140.020866	892.415795	-3.714975	13.288874	40.754734	42.576295	44.999904	-26.161533	631.089607	788.628542	32.675242	61.238960	1099.081412	82.437566	18.607064	3.287575	10.066722	-45.000000	-43.677911	45.000000	-24.406322	-2422.174507	-4602.854350	19.693188	-47.835696	1089.670244	18.283119	11.502495	-22.687059	
8.4600	38.071609	0.958559	7.512411	-136.235373	890.030428	-3.284283	13.348826	40.927613	42.810425	44.999828	-25.556582	631.175564	788.442553	32.639525	60.812040	1099.123314	83.183881	18.537332	3.249618	9.892336	-45.000000	-43.873442	45.000000	-23.613785	-2422.431338	-4603.178084	19.696609	-47.532713	1089.411251	16.033000	11.946321	-22.462906	
8.4700	37.966790	0.900000	7.461399	-132.421011	887.402079	-2.818712	13.437427	41.102866	43.044611	44.999692	-24.987416	631.293426	788.240469	32.586723	60.366414	1099.154127	83.866591	18.465482	3.219535	9.714303	-45.000000	-44.054303	45.000000	-22.864921	-2422.699458	-4603.527163	19.690169	-47.244834	1089.165876	13.983672	12.355670	-22.224823	
8.4800	37.861252	0.883874	7.449510	-128.584797	884.539752	-2.324210	13.450687	41.247805	43.256591	44.999448	-24.483722	631.453033	788.031253	32.511837	59.897414	1099.174361	84.463972	18.401205	3.204556	9.562811	-45.000000	-44.196195	45.000000	-22.258212	-2422.986286	-4603.894013	19.698813	-46.975520	1088.939629	12.187615	12.685910	-21.978087	
8.4900	37.763393	0.864870	7.432131	-124.734402	881.451947	-1.807776	13.504322	41.404698	43.464659	44.999012	-24.015350	631.626304	787.795093	32.444363	59.420289	1099.179636	84.958421	18.339902	3.200142	9.409307	-45.000000	-44.340103	45.000000	-21.695060	-2423.284409	-4604.283424	19.700951	-46.687938	1088.728881	10.658356	12.987472	-21.731608	
8.5000	37.675608	0.850940	7.414233	-120.876212	878.146753	-1.276270	13.565221	41.556872	43.659559	44.998230	-23.597099	631.815837	787.539857	32.392986	58.931156	1099.168449	85.330754	18.288523	3.211319	9.262129	-45.000000	-44.475897	45.000000	-21.209021	-2423.597821	-4604.692493	19.706999	-46.398791	1088.531435	9.394527	13.247270	-21.489412	
8.5100	37.605416	0.814382	7.369258	-117.015943	874.633279	-0.735518	13.684010	41.721239	43.846733	44.996828	-23.226836	631.996309	787.254571	32.397433	58.427524	1099.137393	85.554373	18.250776	3.240224	9.116915	-45.000000	-44.625861	45.000000	-20.768535	-2423.922438	-4605.125002	19.713372	-46.081842	1088.345267	8.393095	13.487971	-21.252679	
8.5200	37.547415	0.791923	7.339754	-113.157599	870.922284	-0.189293	13.802688	41.871342	44.016584	44.994323	-22.927060	632.205786	786.957932	32.415080	57.886189	1099.082207	85.601790	18.233412	3.291903	8.981583	-45.000000	-44.745924	45.000000	-20.427574	-2424.266548	-4605.574076	19.726523	-45.752763	1088.166480	7.635344	13.688316	-21.024079	
8.5300	37.508827	0.738328	7.286737	-109.305124	867.028150	0.360920	14.031727	42.044042	44.193004	44.989815	-22.656140	632.435244	786.639709	32.444545	57.316169	1098.998511	85.452655	18.231187	3.362989	8.823793	-45.000000	-44.864556	45.000000	-20.069471	-2424.621612	-4606.048018	19.723674	-45.388171	1087.984773	7.067499	13.906434	-20.801943	
8.5400	37.481701	0.703146	7.260794	-105.462314	862.969722	0.915896	14.269558	42.198109	44.355195	44.981800	-22.447812	632.720310	786.322683	32.450368	56.701747	1098.884081	85.080455	18.252278	3.461483	8.668271	-45.000000	-44.940636	45.000000	-19.788550	-2424.997762	-4606.537262	19.722767	-45.017471	1087.795207	6.656098	14.101096	-20.583317	
8.5500	37.463405	0.708760	7.278371	-101.634316	858.771349	1.477816	14.492922	42.322931	44.488179	44.967277	-22.347464	633.044840	786.010018	32.466788	56.052197	1098.736899	84.457408	18.295239	3.591494	8.531681	-45.000000	-44.985125	45.000000	-19.647917	-2425.395335	-4607.031563	19.738817	-44.635162	1087.605007	6.381569	14.264235	-20.371071	
8.5600	37.447436	0.779229	7.367347	-97.827784	854.462602	2.049230	14.645774	42.399064	44.584823	44.941724	-22.346952	633.434326	785.713888	32.450161	55.360252	1098.549824	83.537769	18.362413	3.759513	8.423246	-45.000000	-44.975252	45.000000	-19.673045	-2425.818371	-4607.523263	19.772975	-44.241412	1087.412089	6.248844	14.372626	-20.164751	
8.5700	37.438927	0.865723	7.474554	-94.051693	850.078263	2.631719	14.800493	42.452775	44.658882	44.894659	-22.395416	633.845718	785.419720	32.433422	54.676803	1098.319162	82.266741	18.445815	3.967717	8.324746	-45.000000	-44.959555	45.000000	-19.769080	-2426.254788	-4608.012947	19.814566	-43.825220	1087.220333	6.259756	14.458127	-19.968048	
8.5800	37.428307	0.997807	7.639991	-90.316862	845.657269	3.224935	14.884496	42.464903	44.701578	44.813963	-22.485468	634.268792	785.122846	32.401681	54.056857	1098.038563	80.611358	18.527971	4.217168	8.231027	-45.000000	-44.916703	45.000000	-19.974390	-2426.701159	-4608.488382	19.862535	-43.451262	1087.028065	6.425901	14.488910	-19.784907	
8.5900	37.413971	1.108657	7.786059	-86.636099	841.241541	3.825990	14.937159	42.430757	44.733917	44.659332	-22.527053	634.656381	784.828928	32.374614	53.557098	1097.702102	78.480868	18.616055	4.519628	8.144293	-45.000000	-44.881071	45.000000	-20.180038	-2427.149158	-4608.938993	19.920262	-43.081752	1086.845719	6.762012	14.480727	-19.618389	
8.6000	37.392394	1.197155	7.919327	-83.023540	836.874289	4.429474	14.934547	42.348106	44.774198	44.410481	-22.463533	634.980839	784.529993	32.317333	53.251621	1097.305305	75.792291	18.688565	4.873480	8.044234	-45.000000	-44.844310	45.000000	-20.345140	-2427.588528	-4609.365960	19.976772	-42.758809	1086.668464	7.289295	14.423872	-19.472027	
8.6100	37.365112	1.161506	7.916293	-79.494408	832.598112	5.027948	14.943088	42.216584	44.833122	44.029571	-22.111551	635.219278	784.227973	32.214399	53.215554	1096.828822	72.328795	18.752826	5.298902	7.917349	-45.000000	-44.844777	45.000000	-20.272818	-2428.025149	-4609.758024	20.015488	-42.411781	1086.504206	8.048424	14.361171	-19.348748	
8.6200	37.324935	1.076314	7.861369	-76.064393	828.453161	5.612726	14.865407	42.021972	44.884485	43.534184	-21.535394	635.372188	783.906790	32.061620	53.524415	1096.250471	67.858222	18.778629	5.807345	7.769825	-45.000000	-44.851710	45.000000	-20.089457	-2428.455006	-4610.106283	20.043637	-42.120854	1086.356751	9.099251	14.242686	-19.260102	
